<svg width="63" height="56" fill="none" xmlns="http://www.w3.org/2000/svg"><path fill="#FBB731" d="M0 0h42v56H0z"/><path fill-rule="evenodd" clip-rule="evenodd" d="M40.5 7h3C54.3 7 63 15.7 63 26.5c0 .8-.7 1.5-1.5 1.5h-39c-.8 0-1.5-.7-1.5-1.5C21 15.7 29.7 7 40.5 7Zm0 3c-8.5 0-15.6 6.5-16.4 15h35.8c-.8-8.5-7.9-15-16.4-15h-3ZM55.5 37.1h6c.8 0 1.5.7 1.5 1.5v3c0 4-3.4 7.4-7.5 7.4h-27a7.5 7.5 0 0 1-7.5-7.4v-3c0-.8.7-1.5 1.5-1.5h21l.9.3 5.1 3.8 5.1-3.8.9-.3Zm0 9c2.5 0 4.5-2 4.5-4.5V40h-4l-5.6 4.1c-.5.4-1.3.4-1.8 0L43 40.1H24v1.5c0 2.4 2 4.4 4.5 4.4h27Z" fill="#fff"/><path d="M61.5 31h-39c-.8 0-1.5.7-1.5 1.6 0 .8.7 1.5 1.5 1.5h39c.8 0 1.5-.7 1.5-1.5 0-.9-.7-1.6-1.5-1.6ZM34.4 15.9c-.8 0-1.5.6-1.5 1.5v1.5a1.5 1.5 0 0 0 3 0v-1.5c0-.9-.7-1.5-1.5-1.5ZM42 15.9c-.8 0-1.5.6-1.5 1.5v1.5a1.5 1.5 0 1 0 3 0v-1.5c0-.9-.7-1.5-1.5-1.5ZM49.6 15.9c-.8 0-1.5.6-1.5 1.5v1.5a1.5 1.5 0 1 0 3 0v-1.5c0-.9-.7-1.5-1.5-1.5Z" fill="#fff"/></svg>